<svg width="14" height="14" viewBox="0 0 14 14" fill="none" xmlns="http://www.w3.org/2000/svg">
<path d="M6.1588 9.7281L9.42716 7.27858C9.61612 7.1386 9.61612 6.85866 9.42716 6.71869L6.1588 4.26917C5.92784 4.0942 5.59891 4.26217 5.59891 4.54911V9.44815C5.59891 9.7351 5.92784 9.90306 6.1588 9.7281ZM6.99863 0C3.13539 0 0 3.13539 0 6.99863C0 10.8619 3.13539 13.9973 6.99863 13.9973C10.8619 13.9973 13.9973 10.8619 13.9973 6.99863C13.9973 3.13539 10.8619 0 6.99863 0ZM6.99863 12.5975C3.91224 12.5975 1.39973 10.085 1.39973 6.99863C1.39973 3.91224 3.91224 1.39973 6.99863 1.39973C10.085 1.39973 12.5975 3.91224 12.5975 6.99863C12.5975 10.085 10.085 12.5975 6.99863 12.5975Z" fill="#645E6D"/>
</svg>
