<svg width="27" height="34" viewBox="0 0 27 34" fill="none" xmlns="http://www.w3.org/2000/svg">
<path d="M11.3901 28.6861C12.4588 28.6861 13.3587 28.3205 14.0899 27.5893C14.8212 26.8581 15.1868 25.9581 15.1868 24.8894V18.5616H18.5616C19.0397 18.5616 19.4407 18.3996 19.7647 18.0756C20.0876 17.7528 20.249 17.3523 20.249 16.8742C20.249 16.3961 20.0876 15.995 19.7647 15.671C19.4407 15.3482 19.0397 15.1868 18.5616 15.1868H15.1868C14.7087 15.1868 14.3082 15.3482 13.9853 15.671C13.6613 15.995 13.4993 16.3961 13.4993 16.8742V21.7255C13.19 21.5005 12.8598 21.3385 12.5088 21.2395C12.1567 21.1417 11.7838 21.0927 11.3901 21.0927C10.3214 21.0927 9.42141 21.4583 8.6902 22.1895C7.95899 22.9208 7.59338 23.8207 7.59338 24.8894C7.59338 25.9581 7.95899 26.8581 8.6902 27.5893C9.42141 28.3205 10.3214 28.6861 11.3901 28.6861ZM3.37484 33.7484C2.44676 33.7484 1.65254 33.4182 0.992201 32.7578C0.330734 32.0964 0 31.3016 0 30.3735V3.37484C0 2.44676 0.330734 1.65198 0.992201 0.990514C1.65254 0.330171 2.44676 0 3.37484 0H15.4821C15.932 0 16.3612 0.084371 16.7696 0.253113C17.1768 0.421855 17.5351 0.660905 17.8444 0.970265L26.0284 9.15424C26.3378 9.4636 26.5768 9.8219 26.7456 10.2291C26.9143 10.6375 26.9987 11.0666 26.9987 11.5166V30.3735C26.9987 31.3016 26.6685 32.0964 26.0082 32.7578C25.3467 33.4182 24.5519 33.7484 23.6238 33.7484H3.37484ZM15.1868 3.37484H3.37484V30.3735H23.6238V11.8119H16.8742C16.3961 11.8119 15.9956 11.6499 15.6727 11.3259C15.3488 11.0031 15.1868 10.6026 15.1868 10.1245V3.37484Z" fill="#9B6ADF"/>
</svg>
