<svg width="14" height="14" viewBox="0 0 14 14" fill="none" xmlns="http://www.w3.org/2000/svg">
<path d="M13.6868 0.321138C13.2728 -0.0928907 12.604 -0.0928907 12.19 0.321138L6.99867 5.5018L1.80739 0.310521C1.39337 -0.103507 0.72455 -0.103507 0.310521 0.310521C-0.103507 0.72455 -0.103507 1.39337 0.310521 1.80739L5.5018 6.99867L0.310521 12.19C-0.103507 12.604 -0.103507 13.2728 0.310521 13.6868C0.72455 14.1009 1.39337 14.1009 1.80739 13.6868L6.99867 8.49554L12.19 13.6868C12.604 14.1009 13.2728 14.1009 13.6868 13.6868C14.1009 13.2728 14.1009 12.604 13.6868 12.19L8.49554 6.99867L13.6868 1.80739C14.0902 1.40398 14.0902 0.72455 13.6868 0.321138Z" fill="#2F2F2F"/>
</svg>
